<?xml version="1.0" standalone="no"?><!DOCTYPE svg PUBLIC "-//W3C//DTD SVG 1.1//EN" "http://www.w3.org/Graphics/SVG/1.1/DTD/svg11.dtd"><svg t="1560230592715" class="icon" style="" viewBox="0 0 1024 1024" version="1.1" xmlns="http://www.w3.org/2000/svg" p-id="1975" xmlns:xlink="http://www.w3.org/1999/xlink" width="200" height="200"><defs><style type="text/css"></style></defs><path d="M508.325 470.716l-398.91-398.91c-11.08-11.081-28.912-11.05-39.927-0.034-10.995 10.994-11.002 28.893 0.033 39.927l398.91 398.91-398.91 398.91c-11.08 11.081-11.05 28.912-0.033 39.928 10.994 10.994 28.893 11.002 39.927-0.034l398.91-398.91 398.91 398.91c11.08 11.08 28.912 11.05 39.928 0.033 10.994-10.994 11.002-28.893-0.033-39.927l-398.91-398.91 398.91-398.911c11.08-11.08 11.05-28.912 0.034-39.927-10.994-10.995-28.893-11.002-39.927 0.033L508.325 470.716z" p-id="1976"></path></svg>